<?xml version="1.0" standalone="no"?>
<!DOCTYPE svg PUBLIC "-//W3C//DTD SVG 20010904//EN"
 "http://www.w3.org/TR/2001/REC-SVG-20010904/DTD/svg10.dtd">
<svg version="1.0" xmlns="http://www.w3.org/2000/svg"
 width="152.000000pt" height="152.000000pt" viewBox="0 0 152.000000 152.000000"
 preserveAspectRatio="xMidYMid meet">

  <rect width="100%" height="100%" fill="white"/>

<g transform="translate(0.000000,152.000000) scale(0.100000,-0.100000)"
fill="black" stroke="none">
<path d="M209 1498 c5 -13 23 -51 40 -86 17 -34 31 -71 31 -82 0 -11 -13 -56
-30 -102 -38 -104 -39 -157 -4 -195 15 -16 38 -29 57 -31 35 -3 97 -32 97 -44
0 -5 6 -8 14 -8 8 0 16 -7 20 -15 3 -8 12 -15 21 -15 8 0 15 -4 15 -8 0 -5 19
-19 43 -32 23 -13 57 -34 76 -47 42 -28 106 -46 137 -39 35 9 43 33 33 96 -17
101 -21 150 -14 150 4 0 21 -11 37 -25 29 -25 31 -25 57 -9 14 10 33 24 41 33
28 30 64 56 54 41 -5 -8 -9 -17 -10 -20 0 -3 -12 -43 -27 -91 -15 -47 -27 -94
-27 -105 0 -31 29 -64 56 -64 32 0 303 132 312 153 2 4 9 7 15 7 6 0 34 9 62
20 27 10 66 22 86 25 20 3 47 15 60 26 23 20 24 27 27 167 3 103 8 156 19 179
8 17 13 45 11 61 l-3 30 -33 -48 -33 -48 0 -161 c0 -88 -3 -161 -7 -161 -55
-1 -138 -28 -234 -76 -232 -118 -291 -145 -300 -136 -13 13 94 324 123 356 14
16 10 26 -8 26 -15 0 -137 -111 -161 -145 -4 -5 -17 -19 -30 -29 -22 -19 -23
-19 -37 0 -9 10 -31 46 -50 80 -35 61 -71 102 -81 92 -2 -3 4 -50 15 -104 54
-269 59 -316 29 -286 -7 7 -21 12 -32 12 -27 0 -184 93 -213 125 -12 14 -27
25 -34 25 -6 0 -24 11 -41 25 -21 18 -41 25 -73 25 -30 0 -45 5 -49 16 -13 35
-4 90 30 182 l36 96 -46 93 c-35 71 -51 93 -66 93 -16 0 -18 -4 -11 -22z"/>
<path d="M0 1477 c0 -16 23 -51 67 -100 18 -20 33 -45 33 -54 0 -9 -20 -50
-44 -92 -24 -42 -47 -87 -51 -99 -22 -74 95 75 123 156 15 45 -1 81 -65 150
-51 54 -63 61 -63 39z"/>
<path d="M0 952 c0 -11 9 -27 20 -37 18 -16 20 -31 20 -155 0 -124 -2 -139
-20 -155 -11 -10 -20 -24 -20 -32 0 -23 31 -11 54 20 19 25 21 45 24 166 l3
138 -35 36 c-41 42 -46 44 -46 19z"/>
<path d="M202 947 c-16 -16 -22 -34 -21 -62 0 -22 -2 -51 -5 -64 -6 -26 6 -54
37 -88 23 -26 67 -29 182 -13 57 9 74 16 92 38 12 15 22 30 23 33 0 10 -69 74
-76 71 -4 -2 -10 0 -13 5 -14 20 -156 103 -175 102 -12 0 -31 -10 -44 -22z
m87 -35 c20 -15 69 -48 109 -71 69 -41 89 -58 80 -66 -2 -2 -55 -9 -117 -16
l-113 -13 -19 25 c-13 16 -17 33 -14 49 3 14 6 43 5 64 -1 33 11 55 29 56 2 0
20 -13 40 -28z"/>
<path d="M1308 884 c-27 -8 -48 -19 -48 -24 0 -6 -5 -10 -11 -10 -5 0 -8 4 -5
8 5 9 -111 -43 -174 -77 -46 -25 -61 -63 -35 -91 36 -39 156 -90 228 -95 59
-4 69 -2 95 20 16 14 42 50 57 80 22 46 25 62 19 98 -4 23 -7 45 -6 50 1 4 -3
7 -10 7 -6 0 -8 3 -5 7 7 6 -41 44 -53 42 -3 0 -26 -7 -52 -15z m87 -85 c7
-57 6 -62 -28 -113 l-36 -54 -58 3 c-54 2 -161 36 -173 55 -3 4 -14 9 -24 11
-39 8 -27 29 31 55 162 73 231 100 270 103 6 1 14 -24 18 -60z"/>
<path d="M586 695 c-50 -14 -91 -45 -101 -76 -7 -22 -21 -21 -47 4 -10 9 -27
17 -39 17 -25 0 -121 -46 -148 -71 -11 -11 -23 -19 -26 -19 -9 0 -58 -42 -105
-91 -32 -33 -53 -69 -74 -123 -16 -42 -33 -79 -37 -82 -5 -3 -9 -30 -9 -61 0
-58 7 -62 25 -14 56 154 93 229 131 266 65 63 194 147 235 152 l37 5 6 -43 c3
-24 8 -75 11 -114 13 -158 16 -161 40 -40 13 61 26 133 29 160 4 28 11 57 15
64 10 15 110 41 163 41 50 0 52 -12 44 -209 -4 -86 -9 -225 -11 -308 l-4 -153
38 0 37 0 33 303 c18 166 36 306 40 310 9 9 61 -1 61 -13 0 -4 21 -15 48 -25
75 -29 125 -61 128 -81 2 -10 5 -39 9 -64 3 -25 13 -88 22 -140 l17 -95 17
122 c9 67 19 128 22 136 3 8 27 17 59 21 29 4 64 8 78 10 14 2 39 7 55 11 28
6 31 4 43 -29 12 -33 17 -36 53 -36 32 0 39 3 39 20 0 13 -7 20 -20 20 -10 0
-35 16 -55 36 -28 28 -41 34 -63 30 -15 -3 -62 -10 -104 -17 -44 -7 -85 -19
-95 -29 -22 -20 -43 -15 -43 9 0 10 -11 30 -25 43 -25 26 -149 90 -172 91 -7
0 -13 3 -13 7 0 3 -14 7 -30 8 -36 3 -82 -39 -79 -72 1 -12 0 -23 -1 -26 -4
-13 -10 -49 -15 -95 -6 -58 -22 -127 -25 -105 -1 8 -2 81 -3 163 l-2 147 -29
25 c-33 29 -81 32 -160 10z"/>
<path d="M298 300 c-9 -19 -35 -88 -58 -154 -23 -65 -44 -125 -47 -133 -4 -11
1 -14 23 -11 25 3 30 10 46 63 27 89 59 236 56 254 -2 10 -9 3 -20 -19z"/>
</g>
</svg>
